REM MD5 3e6ec2cfcfa9cf70fc49194c62ab348c
FILE "Jikki Pachi-Slot Tettei Kouryaku - Speed-CR Kinkakuji 3 (Japan).bin" BINARY
  TRACK 01 MODE2/2352
    INDEX 01 00:00:00
  TRACK 02 AUDIO
    INDEX 00 10:57:69
    INDEX 01 10:59:69
  TRACK 03 AUDIO
    INDEX 00 14:11:26
    INDEX 01 14:12:26
  TRACK 04 AUDIO
    INDEX 00 17:22:70
    INDEX 01 17:23:70
REM LEADOUT 21:10:52
